# xmcd
# Track frame offsets:
# 150
# 16109
# 36081
# 49207
# 64032
# 82115
# 97327
# 117907
# 133614
# 149031
#
# Disc length: 2187 seconds
# Revision: 0
# Processed by: cddbd v1.4PL0 Copyright (c) Steve Scherf et al.
# Submitted via: VisiTrax 2.9.5.180 - For more info visit www.synapsa.com
#
DISCID=9108890a
DTITLE=Mike Hillger - Finals fever
DYEAR=1900
DGENRE=
TTITLE0=Finals fever
TTITLE1=Dally'd at the knot
TTITLE2=No ropin' blues
TTITLE3=Roper's wife
TTITLE4=The run from hell
TTITLE5=Rodeo run
TTITLE6=He's a cowboy
TTITLE7=No time
TTITLE8=Moonlight ride
TTITLE9=Ducky
EXTD=
EXTT0=
EXTT1=
EXTT2=
EXTT3=
EXTT4=
EXTT5=
EXTT6=
EXTT7=
EXTT8=
EXTT9=
PLAYORDER=
